<?xml version="1.0" standalone="no"?>
<!DOCTYPE svg PUBLIC "-//W3C//DTD SVG 20010904//EN"
 "http://www.w3.org/TR/2001/REC-SVG-20010904/DTD/svg10.dtd">
<svg version="1.0" xmlns="http://www.w3.org/2000/svg"
 width="487.000000pt" height="384.000000pt" viewBox="0 0 487.000000 384.000000"
 preserveAspectRatio="xMidYMid meet">

<g transform="translate(0.000000,384.000000) scale(0.100000,-0.100000)"
fill="#000000" stroke="none">
<path d="M2490 3629 c-194 -27 -373 -193 -416 -387 -82 -369 247 -693 616
-606 139 32 273 140 335 269 179 371 -124 781 -535 724z m197 -83 c95 -25 186
-96 248 -191 139 -214 48 -512 -189 -621 -258 -118 -555 41 -608 326 -38 202
91 411 296 481 63 22 182 24 253 5z"/>
<path d="M2547 3369 c-9 -6 -17 -20 -17 -33 0 -17 -9 -27 -30 -36 -39 -16 -60
-46 -60 -87 0 -66 37 -103 119 -119 36 -8 66 -37 58 -59 -4 -10 -20 -15 -49
-15 -34 0 -46 5 -64 27 -14 18 -26 24 -38 20 -43 -17 -27 -78 28 -104 19 -9
37 -26 40 -38 10 -40 66 -43 66 -4 0 10 13 25 29 34 40 20 61 53 61 93 0 62
-28 88 -132 118 -45 14 -49 18 -46 42 2 21 9 28 32 30 43 5 70 -5 81 -30 12
-27 43 -30 59 -5 15 23 -9 65 -51 92 -20 12 -32 28 -33 42 0 28 -29 45 -53 32z"/>
<path d="M2439 2589 c-316 -32 -603 -163 -810 -369 -94 -94 -152 -174 -209
-289 -37 -73 -80 -201 -80 -235 0 -21 2 -21 -80 15 l-70 32 6 47 c7 56 -15
143 -48 185 -12 15 -37 34 -55 42 -30 12 -38 12 -69 -3 -83 -40 -99 -119 -39
-197 20 -26 56 -60 80 -77 l45 -31 -17 -31 c-10 -17 -44 -54 -76 -82 -61 -54
-72 -88 -31 -94 30 -4 119 69 155 128 l30 49 75 -37 74 -36 0 -91 c0 -278 109
-527 326 -740 l71 -70 23 -120 c28 -145 73 -301 104 -364 43 -84 35 -82 272
-79 l209 3 22 45 c12 25 33 86 46 135 l24 90 149 3 150 2 18 -72 c25 -97 54
-175 72 -193 13 -12 51 -15 218 -15 190 0 204 1 224 20 45 43 93 174 132 360
30 146 29 145 92 160 187 45 490 173 584 248 79 62 91 96 104 297 12 176 4
301 -20 331 -17 19 -69 18 -92 -2 -17 -16 -21 -15 -64 7 l-46 24 6 47 c12 107
-26 218 -100 296 l-43 45 10 111 c14 138 7 282 -16 325 -9 18 -27 36 -42 42
-46 17 -229 -14 -350 -61 l-52 -19 -67 40 c-83 51 -206 104 -299 130 -163 45
-385 65 -546 48z m383 -85 c160 -27 288 -74 435 -160 l92 -54 83 34 c86 35
208 60 268 54 31 -3 35 -7 43 -43 12 -57 -9 -404 -25 -421 -3 -2 -31 11 -64
28 -55 31 -66 33 -154 33 -88 0 -101 -3 -162 -33 -77 -38 -128 -91 -166 -172
-22 -46 -26 -69 -27 -145 0 -77 4 -98 27 -147 133 -285 551 -269 656 24 9 26
20 48 25 48 4 0 47 -22 96 -50 93 -52 110 -57 128 -39 9 9 13 6 18 -13 8 -31
-13 -372 -25 -403 -14 -37 -90 -94 -185 -140 -87 -41 -312 -122 -462 -165 -47
-14 -73 -26 -77 -38 -2 -9 -12 -55 -21 -102 -24 -127 -63 -268 -92 -332 l-26
-58 -179 0 -178 0 -11 26 c-5 15 -21 74 -36 133 -14 58 -29 109 -32 113 -8 9
-397 15 -406 7 -3 -4 -17 -52 -30 -108 -14 -55 -31 -117 -39 -136 l-15 -35
-175 0 -176 0 -19 37 c-30 61 -68 190 -101 349 l-31 148 -89 89 c-244 242
-344 540 -281 842 119 575 742 941 1413 829z m-1721 -584 c22 -30 37 -130 20
-130 -22 0 -101 86 -101 111 0 53 49 64 81 19z m2497 -15 c83 -35 111 -63 131
-134 11 -36 23 -84 26 -106 4 -22 13 -50 21 -62 19 -30 18 -40 -10 -99 -88
-189 -334 -235 -479 -90 -65 64 -82 109 -82 211 0 102 17 147 82 211 77 77
216 108 311 69z m254 -74 c32 -52 35 -81 10 -104 -17 -16 -20 -13 -48 51 -32
73 -35 134 -7 110 9 -7 29 -33 45 -57z m40 -181 c-4 -31 -16 -38 -27 -19 -4 5
1 19 11 30 22 24 21 25 16 -11z"/>
<path d="M2460 2449 c-141 -12 -194 -28 -198 -58 -6 -41 9 -44 114 -26 135 23
342 23 466 1 112 -21 131 -18 126 21 -3 26 -8 29 -87 45 -108 21 -288 29 -421
17z"/>
<path d="M3563 2282 c-62 -26 -118 -53 -124 -59 -16 -16 -5 -30 102 -132 96
-90 130 -108 143 -75 8 22 -10 48 -82 120 l-60 59 86 36 c81 33 87 38 87 65 0
43 -24 41 -152 -14z"/>
<path d="M3584 1709 c-14 -16 -19 -36 -19 -81 0 -51 4 -63 24 -79 31 -25 47
-24 76 6 20 19 25 34 25 73 0 85 -60 131 -106 81z"/>
</g>
</svg>
